<svg viewBox="0 0 400 400" xmlns="http://www.w3.org/2000/svg" role="img" aria-label="Barista preparando una taza de café">
  <rect width="400" height="400" fill="#EFE3D0"/>
  <circle cx="200" cy="110" r="40" fill="#E8B98A" stroke="#2B1B12" stroke-width="5"/>
  <path d="M162 100 a38 38 0 0 1 76 0 v-10 a38 22 0 0 0-76 0 z" fill="#3B2A1E"/>
  <path d="M140 340 c-6 -90 20 -140 60 -140 c40 0 66 50 60 140 z" fill="#7A2E2E" stroke="#2B1B12" stroke-width="5"/>
  <rect x="150" y="230" width="100" height="34" rx="8" fill="#FAF5EC" stroke="#2B1B12" stroke-width="4"/>
  <rect x="230" y="290" width="70" height="60" rx="8" fill="#FAF5EC" stroke="#2B1B12" stroke-width="5"/>
  <rect x="240" y="300" width="50" height="26" fill="#4A3221"/>
  <path d="M300 300 c18 -2 24 14 14 24 c-6 8 -16 8 -22 4" fill="none" stroke="#2B1B12" stroke-width="6"/>
  <path d="M230 300 c-30 -10 -55 -10 -70 6" fill="none" stroke="#2B1B12" stroke-width="6" stroke-linecap="round"/>
</svg>
